<svg aria-hidden="true" style="width:0;height:0;position:absolute;overflow:hidden" xmlns="http://www.w3.org/2000/svg"><defs><symbol id="icon-envelope" viewBox="0 0 43 32"><path d="M38.667 0H4C1.794 0 0 1.794 0 4v24c0 2.206 1.794 4 4 4h34.667c2.206 0 4-1.794 4-4V4c0-2.206-1.794-4-4-4zm0 2.667c.181 0 .353.038.511.103L21.334 18.236 3.49 2.77a1.32 1.32 0 0 1 .511-.103h34.667zm0 26.666H4A1.334 1.334 0 0 1 2.667 28V5.587L20.46 21.008a1.335 1.335 0 0 0 1.748 0L40.001 5.587V28c0 .736-.598 1.333-1.333 1.333z"/></symbol><symbol id="icon-facebook-1" viewBox="0 0 32 32"><path d="M21.329 5.313h2.921V.225C23.746.156 22.013 0 19.994 0c-4.212 0-7.097 2.649-7.097 7.519V12H8.249v5.688h4.648V32h5.699V17.689h4.46l.708-5.688h-5.169V8.082c.001-1.644.444-2.769 2.735-2.769z"/></symbol><symbol id="icon-instagram-1" viewBox="0 0 32 32"><path d="M31.969 9.408c-.075-1.7-.35-2.869-.744-3.882a7.806 7.806 0 0 0-1.851-2.838A7.867 7.867 0 0 0 26.542.844C25.523.45 24.36.175 22.66.1 20.947.019 20.403 0 16.059 0s-4.888.019-6.595.094c-1.7.075-2.869.35-3.882.744a7.803 7.803 0 0 0-2.838 1.85A7.867 7.867 0 0 0 .9 5.52C.506 6.539.231 7.702.156 9.402c-.081 1.713-.1 2.257-.1 6.601s.019 4.888.094 6.595c.075 1.7.35 2.869.744 3.882a7.895 7.895 0 0 0 1.85 2.838 7.867 7.867 0 0 0 2.832 1.844c1.019.394 2.182.669 3.882.744 1.706.075 2.25.094 6.595.094s4.888-.019 6.595-.094c1.7-.075 2.869-.35 3.882-.744a8.184 8.184 0 0 0 4.682-4.682c.394-1.019.669-2.182.744-3.882.075-1.707.094-2.251.094-6.595s-.006-4.888-.081-6.595zm-2.882 13.065c-.069 1.563-.331 2.407-.55 2.969a5.31 5.31 0 0 1-3.038 3.038c-.563.219-1.413.481-2.969.55-1.688.075-2.194.094-6.464.094s-4.782-.019-6.464-.094c-1.563-.069-2.407-.331-2.969-.55a4.926 4.926 0 0 1-1.838-1.194 4.974 4.974 0 0 1-1.194-1.838c-.219-.563-.481-1.413-.55-2.969-.075-1.688-.094-2.194-.094-6.464s.019-4.782.094-6.464c.069-1.563.331-2.407.55-2.969a4.868 4.868 0 0 1 1.2-1.838A4.974 4.974 0 0 1 6.639 3.55c.563-.219 1.413-.481 2.969-.55 1.688-.075 2.194-.094 6.464-.094 4.276 0 4.782.019 6.464.094 1.563.069 2.407.331 2.969.55a4.914 4.914 0 0 1 1.838 1.194 4.974 4.974 0 0 1 1.194 1.838c.219.563.481 1.413.55 2.969.075 1.688.094 2.194.094 6.464s-.019 4.77-.094 6.458z"/><path d="M16.059 7.783c-4.538 0-8.22 3.682-8.22 8.22s3.682 8.22 8.22 8.22c4.539 0 8.22-3.682 8.22-8.22s-3.682-8.22-8.22-8.22zm0 13.552a5.333 5.333 0 0 1 0-10.664 5.333 5.333 0 0 1 0 10.664zM26.524 7.458a1.919 1.919 0 1 1-3.838 0 1.919 1.919 0 0 1 3.838 0z"/></symbol><symbol id="icon-smartphone" viewBox="0 0 20 32"><path d="M17 0H3C1.346 0 0 1.346 0 3v26c0 1.654 1.346 3 3 3h14c1.654 0 3-1.346 3-3V3c0-1.654-1.346-3-3-3zM3 2h14a1 1 0 0 1 1 1v21H2V3a1 1 0 0 1 1-1zm14 28H3a1 1 0 0 1-1-1v-3h16v3a1 1 0 0 1-1 1z"/><path d="M4.707 27.478c.391.365.391.956 0 1.321s-1.024.365-1.414 0c-.391-.365-.391-.956 0-1.321s1.024-.365 1.414 0z"/></symbol><symbol id="icon-close-icon" viewBox="0 0 32 32"><path d="m26.667 7.303-1.97-1.97-7.808 7.808-7.808-7.808-1.97 1.97 7.808 7.808-7.808 7.808 1.97 1.97 7.808-7.808 7.808 7.808 1.97-1.97-7.808-7.808 7.808-7.808z"/></symbol><symbol id="icon-icon-send" viewBox="0 0 32 32"><path fill="#fff" style="fill:var(--color1,#fff)" d="M32 0 0 18l10.227 3.788L26 7 14.002 23.186l.01.004-.012-.004V32l5.735-6.691L27 28l5-28z"/></symbol><symbol id="icon-close" viewBox="0 0 32 32"><path d="M31.439 3.166 28.273 0 15.72 12.553 3.167 0 .001 3.166l12.553 12.553L.001 28.272l3.166 3.166L15.72 18.885l12.553 12.553 3.166-3.166-12.553-12.553L31.439 3.166z"/></symbol><symbol id="icon-menu" viewBox="0 0 48 32"><path d="M0 5.333V0h48v5.333H0zm0 13.334h48v-5.333H0v5.333zM0 32h48v-5.333H0V32z"/></symbol><symbol id="icon-person-black" viewBox="0 0 32 32"><path d="M16 16c2.947 0 5.333-2.387 5.333-5.333S18.946 5.334 16 5.334c-2.947 0-5.333 2.387-5.333 5.333S13.054 16 16 16zm0 2.667c-3.56 0-10.667 1.787-10.667 5.333v1.333c0 .733.6 1.333 1.333 1.333h18.667c.733 0 1.333-.6 1.333-1.333V24c0-3.547-7.107-5.333-10.667-5.333z"/></symbol><symbol id="icon-phone-black" viewBox="0 0 32 32"><path d="m24.882 19.773-3.268-.373a2.561 2.561 0 0 0-2.11.733L17.137 22.5a19.357 19.357 0 0 1-8.478-8.478l2.38-2.38a2.561 2.561 0 0 0 .733-2.11l-.373-3.242a2.575 2.575 0 0 0-2.56-2.277H6.613c-1.454 0-2.663 1.209-2.573 2.663.682 10.987 9.469 19.761 20.443 20.443 1.454.09 2.663-1.119 2.663-2.573V22.32a2.549 2.549 0 0 0-2.264-2.547z"/></symbol><symbol id="icon-email-black" viewBox="0 0 32 32"><path d="M26.667 5.333H5.334A2.663 2.663 0 0 0 2.681 8l-.013 16c0 1.467 1.2 2.667 2.667 2.667h21.333c1.467 0 2.667-1.2 2.667-2.667V8c0-1.467-1.2-2.667-2.667-2.667zM26.133 11l-9.427 5.893a1.346 1.346 0 0 1-1.413 0L5.866 11a1.132 1.132 0 1 1 1.2-1.92l8.933 5.587 8.933-5.587a1.132 1.132 0 1 1 1.2 1.92z"/></symbol><symbol id="icon-envelope" viewBox="0 0 43 32"><path d="M38.667 0H4C1.794 0 0 1.794 0 4v24c0 2.206 1.794 4 4 4h34.667c2.206 0 4-1.794 4-4V4c0-2.206-1.794-4-4-4zm0 2.667c.181 0 .353.038.511.103L21.334 18.236 3.49 2.77a1.32 1.32 0 0 1 .511-.103h34.667zm0 26.666H4A1.334 1.334 0 0 1 2.667 28V5.587L20.46 21.008a1.335 1.335 0 0 0 1.748 0L40.001 5.587V28c0 .736-.598 1.333-1.333 1.333z"/></symbol><symbol id="icon-smartphone" viewBox="0 0 20 32"><path d="M17 0H3C1.346 0 0 1.346 0 3v26c0 1.654 1.346 3 3 3h14c1.654 0 3-1.346 3-3V3c0-1.654-1.346-3-3-3zM3 2h14a1 1 0 0 1 1 1v21H2V3a1 1 0 0 1 1-1zm14 28H3a1 1 0 0 1-1-1v-3h16v3a1 1 0 0 1-1 1z"/><path d="M4.707 27.478c.391.365.391.956 0 1.321s-1.024.365-1.414 0c-.391-.365-.391-.956 0-1.321s1.024-.365 1.414 0z"/></symbol><symbol id="icon-calendar-lines" viewBox="0 0 32 32"><path d="M25.333 2.667H24V1.334a1.333 1.333 0 1 0-2.666 0v1.333H10.667V1.334a1.333 1.333 0 1 0-2.666 0v1.333H6.668A6.675 6.675 0 0 0 .001 9.334v16a6.675 6.675 0 0 0 6.667 6.667h18.667a6.675 6.675 0 0 0 6.667-6.667v-16a6.675 6.675 0 0 0-6.667-6.667zM6.667 5.333h18.667c2.205 0 4 1.795 4 4v1.333H2.667V9.333c0-2.205 1.795-4 4-4zm18.666 24H6.666c-2.205 0-4-1.795-4-4v-12h26.667v12c0 2.205-1.795 4-4 4zm0-10.666c0 .736-.596 1.333-1.333 1.333H8a1.333 1.333 0 1 1 0-2.666h16c.737 0 1.333.597 1.333 1.333zM16 24c0 .736-.596 1.333-1.333 1.333H8a1.333 1.333 0 1 1 0-2.666h6.667c.737 0 1.333.597 1.333 1.333z"/></symbol><symbol id="icon-map-marker" viewBox="0 0 32 32"><path d="M16 16a5.333 5.333 0 1 0-5.333-5.333A5.333 5.333 0 0 0 16 16zm0-8a2.667 2.667 0 1 1-2.667 2.667A2.667 2.667 0 0 1 16 8zm11.547 4.209-.959-.319c.045-.367.07-.793.07-1.224C26.658 4.778 21.887.004 16-.001 10.116.001 5.347 4.772 5.347 10.656c0 .517.037 1.025.108 1.522l-.007-.057a6.732 6.732 0 0 0-3.4 1.736l.003-.003A6.58 6.58 0 0 0 0 18.633v.033-.002 5.433a6.688 6.688 0 0 0 4.753 6.388l.047.012 3.827 1.2c.59.19 1.269.3 1.974.3h.012-.001a6.751 6.751 0 0 0 1.854-.26l-.048.012 7.707-2.28a3.99 3.99 0 0 1 2.126.006l-.028-.007 3.183 1.067A5.332 5.332 0 0 0 32 25.358v-6.866a6.69 6.69 0 0 0-4.407-6.273l-.047-.015zM10.344 5.016A7.96 7.96 0 0 1 16 2.667c2.21 0 4.21.898 5.656 2.349a8.024 8.024 0 0 1 2.34 5.674 8.023 8.023 0 0 1-2.326 5.66l.001-.001-4.737 4.607c-.238.234-.565.378-.926.378s-.688-.144-.926-.378l-4.737-4.587c-1.447-1.456-2.341-3.462-2.341-5.677s.894-4.221 2.341-5.677zm18.989 20.345v.005c0 .846-.396 1.6-1.013 2.086l-.006.004a2.609 2.609 0 0 1-2.185.523l.017.003-3.127-1.051a6.56 6.56 0 0 0-1.849-.26c-.631 0-1.242.087-1.821.25l.047-.011-7.712 2.277a3.983 3.983 0 0 1-2.287-.047l.028.008-3.859-1.2a4.025 4.025 0 0 1-2.901-3.85v-5.456c0-1.125.47-2.141 1.225-2.861l.002-.002a4.015 4.015 0 0 1 2.204-1.072l.022-.003a10.757 10.757 0 0 0 2.353 3.559l4.756 4.604c.717.702 1.699 1.136 2.783 1.136s2.066-.433 2.783-1.136l-.001.001 4.751-4.617a10.625 10.625 0 0 0 2.393-3.689l.025-.073.716.237c1.56.571 2.653 2.041 2.656 3.766z"/></symbol><symbol id="icon-envelope" viewBox="0 0 32 32"><path d="M24.667 1.333H7.334A7.341 7.341 0 0 0 .001 8.666v14.667a7.341 7.341 0 0 0 7.333 7.333h17.334a7.341 7.341 0 0 0 7.333-7.333V8.666a7.341 7.341 0 0 0-7.333-7.333zm0 4a3.294 3.294 0 0 1 2.194.844l-.003-.003-8.667 8.667c-.567.542-1.337.876-2.185.876s-1.618-.334-2.187-.877l.001.001-8.667-8.667a3.283 3.283 0 0 1 2.179-.841h.001zm0 21.334H7.334a3.333 3.333 0 0 1-3.333-3.333V10.69l6.985 6.985c1.283 1.284 3.056 2.078 5.014 2.078s3.731-.794 5.014-2.077l6.987-6.985v12.644a3.333 3.333 0 0 1-3.333 3.333z"/></symbol><symbol id="icon-phone-call" viewBox="0 0 32 32"><path d="M23.333 32c-10.865.305-30.1-18.951-20.851-29.416a521.7 521.7 0 0 1 1.456-1.272A4.757 4.757 0 0 1 7.181.043c1.281 0 2.445.504 3.303 1.326l-.002-.002 2.869 3.091a4.677 4.677 0 0 1 1.303 3.247 4.68 4.68 0 0 1-1.356 3.301l-.517.525c1.573 3.426 4.254 6.118 7.577 7.664l.095.04.548-.533c.856-.816 2.018-1.319 3.297-1.319s2.441.502 3.299 1.321l-.002-.002 2.983 2.767a4.676 4.676 0 0 1 1.412 3.353 4.67 4.67 0 0 1-1.304 3.244l.002-.002s-1.24 1.421-1.272 1.455a8.493 8.493 0 0 1-6.013 2.484h-.073.004zM5.267 5.467c-6.479 8.024 14.259 27.564 21.273 21.267 0 0 1.232-1.412 1.265-1.444a.663.663 0 0 0 0-.942l-2.984-2.765c-.4-.333-.625-.337-.996-.053l-1.515 1.491a1.994 1.994 0 0 1-2.13.438l.014.005c-5.399-2.048-9.587-6.231-11.597-11.49l-.046-.136a1.99 1.99 0 0 1 .431-2.147l1.477-1.501a.643.643 0 0 0 .012-.955L7.599 4.144a.648.648 0 0 0-.889.053c-.032.033-1.444 1.272-1.444 1.272zm17.144 14.648zM32 12.667C31.992 5.675 26.326.009 19.334 0h-.001a2 2 0 1 0 0 4A8.678 8.678 0 0 1 28 12.666v.001a2 2 0 1 0 4 0zm-6.667 0a6.007 6.007 0 0 0-6-6 2 2 0 1 0 0 4 2 2 0 0 1 2 2 2 2 0 1 0 4 0z"/></symbol></defs></svg>