<svg aria-hidden="true" style="position: absolute; width: 0; height: 0; overflow: hidden;" version="1.1" xmlns="http://www.w3.org/2000/svg" xmlns:xlink="http://www.w3.org/1999/xlink">
<defs>
<symbol id="icon-envelope" viewBox="0 0 43 32">
<path d="M38.667 0h-34.667c-2.206 0-4 1.794-4 4v24c0 2.206 1.794 4 4 4h34.667c2.206 0 4-1.794 4-4v-24c0-2.206-1.794-4-4-4zM38.667 2.667c0.181 0 0.353 0.038 0.511 0.103l-17.844 15.466-17.844-15.466c0.158-0.066 0.33-0.103 0.511-0.103h34.667zM38.667 29.333h-34.667c-0.736 0-1.333-0.598-1.333-1.333v-22.413l17.793 15.421c0.251 0.217 0.563 0.326 0.874 0.326s0.622-0.108 0.874-0.326l17.793-15.421v22.413c0 0.736-0.598 1.333-1.333 1.333z"></path>
</symbol>
<symbol id="icon-facebook-1" viewBox="0 0 32 32">
<path d="M21.329 5.313h2.921v-5.088c-0.504-0.069-2.237-0.225-4.256-0.225-4.212 0-7.097 2.649-7.097 7.519v4.481h-4.648v5.688h4.648v14.312h5.699v-14.311h4.46l0.708-5.688h-5.169v-3.919c0.001-1.644 0.444-2.769 2.735-2.769z"></path>
</symbol>
<symbol id="icon-instagram-1" viewBox="0 0 32 32">
<path d="M31.969 9.408c-0.075-1.7-0.35-2.869-0.744-3.882-0.406-1.075-1.032-2.038-1.851-2.838-0.8-0.813-1.769-1.444-2.832-1.844-1.019-0.394-2.182-0.669-3.882-0.744-1.713-0.081-2.257-0.1-6.601-0.1s-4.888 0.019-6.595 0.094c-1.7 0.075-2.869 0.35-3.882 0.744-1.075 0.406-2.038 1.031-2.838 1.85-0.813 0.8-1.444 1.769-1.844 2.832-0.394 1.019-0.669 2.182-0.744 3.882-0.081 1.713-0.1 2.257-0.1 6.601s0.019 4.888 0.094 6.595c0.075 1.7 0.35 2.869 0.744 3.882 0.406 1.075 1.038 2.038 1.85 2.838 0.8 0.813 1.769 1.444 2.832 1.844 1.019 0.394 2.182 0.669 3.882 0.744 1.706 0.075 2.25 0.094 6.595 0.094s4.888-0.019 6.595-0.094c1.7-0.075 2.869-0.35 3.882-0.744 2.151-0.832 3.851-2.532 4.682-4.682 0.394-1.019 0.669-2.182 0.744-3.882 0.075-1.707 0.094-2.251 0.094-6.595s-0.006-4.888-0.081-6.595zM29.087 22.473c-0.069 1.563-0.331 2.407-0.55 2.969-0.538 1.394-1.644 2.5-3.038 3.038-0.563 0.219-1.413 0.481-2.969 0.55-1.688 0.075-2.194 0.094-6.464 0.094s-4.782-0.019-6.464-0.094c-1.563-0.069-2.407-0.331-2.969-0.55-0.694-0.256-1.325-0.663-1.838-1.194-0.531-0.519-0.938-1.144-1.194-1.838-0.219-0.563-0.481-1.413-0.55-2.969-0.075-1.688-0.094-2.194-0.094-6.464s0.019-4.782 0.094-6.464c0.069-1.563 0.331-2.407 0.55-2.969 0.256-0.694 0.663-1.325 1.2-1.838 0.519-0.531 1.144-0.938 1.838-1.194 0.563-0.219 1.413-0.481 2.969-0.55 1.688-0.075 2.194-0.094 6.464-0.094 4.276 0 4.782 0.019 6.464 0.094 1.563 0.069 2.407 0.331 2.969 0.55 0.694 0.256 1.325 0.662 1.838 1.194 0.531 0.519 0.938 1.144 1.194 1.838 0.219 0.563 0.481 1.413 0.55 2.969 0.075 1.688 0.094 2.194 0.094 6.464s-0.019 4.77-0.094 6.458z"></path>
<path d="M16.059 7.783c-4.538 0-8.22 3.682-8.22 8.22s3.682 8.22 8.22 8.22c4.539 0 8.22-3.682 8.22-8.22s-3.682-8.22-8.22-8.22zM16.059 21.335c-2.944 0-5.332-2.388-5.332-5.332s2.388-5.332 5.332-5.332c2.944 0 5.332 2.388 5.332 5.332s-2.388 5.332-5.332 5.332v0z"></path>
<path d="M26.524 7.458c0 1.060-0.859 1.919-1.919 1.919s-1.919-0.859-1.919-1.919c0-1.060 0.859-1.919 1.919-1.919s1.919 0.859 1.919 1.919v0z"></path>
</symbol>
<symbol id="icon-smartphone" viewBox="0 0 20 32">
<path d="M17 0h-14c-1.654 0-3 1.346-3 3v26c0 1.654 1.346 3 3 3h14c1.654 0 3-1.346 3-3v-26c0-1.654-1.346-3-3-3zM3 2h14c0.552 0 1 0.448 1 1v21h-16v-21c0-0.552 0.448-1 1-1zM17 30h-14c-0.552 0-1-0.448-1-1v-3h16v3c0 0.552-0.448 1-1 1z"></path>
<path d="M4.707 27.478c0.391 0.365 0.391 0.956 0 1.321s-1.024 0.365-1.414 0c-0.391-0.365-0.391-0.956 0-1.321s1.024-0.365 1.414 0z"></path>
</symbol>
<symbol id="icon-close-icon" viewBox="0 0 32 32">
<path d="M26.667 7.303l-1.97-1.97-7.808 7.808-7.808-7.808-1.97 1.97 7.808 7.808-7.808 7.808 1.97 1.97 7.808-7.808 7.808 7.808 1.97-1.97-7.808-7.808 7.808-7.808z"></path>
</symbol>
<symbol id="icon-icon-send" viewBox="0 0 32 32">
<path fill="#fff" style="fill: var(--color1, #fff)" d="M32 0l-32 18 10.227 3.788 15.773-14.788-11.998 16.186 0.010 0.004-0.012-0.004v8.814l5.735-6.691 7.265 2.691 5-28z"></path>
</symbol>
<symbol id="icon-close" viewBox="0 0 32 32">
<path d="M31.439 3.166l-3.166-3.166-12.553 12.553-12.553-12.553-3.166 3.166 12.553 12.553-12.553 12.553 3.166 3.166 12.553-12.553 12.553 12.553 3.166-3.166-12.553-12.553 12.553-12.553z"></path>
</symbol>
<symbol id="icon-menu" viewBox="0 0 48 32">
<path d="M0 5.333v-5.333h48v5.333h-48zM0 18.667h48v-5.333h-48v5.333zM0 32h48v-5.333h-48v5.333z"></path>
</symbol>
<symbol id="icon-person-black" viewBox="0 0 32 32">
<path d="M16 16c2.947 0 5.333-2.387 5.333-5.333s-2.387-5.333-5.333-5.333c-2.947 0-5.333 2.387-5.333 5.333s2.387 5.333 5.333 5.333zM16 18.667c-3.56 0-10.667 1.787-10.667 5.333v1.333c0 0.733 0.6 1.333 1.333 1.333h18.667c0.733 0 1.333-0.6 1.333-1.333v-1.333c0-3.547-7.107-5.333-10.667-5.333z"></path>
</symbol>
<symbol id="icon-phone-black" viewBox="0 0 32 32">
<path d="M24.882 19.773l-3.268-0.373c-0.785-0.090-1.557 0.18-2.11 0.733l-2.367 2.367c-3.641-1.853-6.626-4.825-8.478-8.478l2.38-2.38c0.553-0.553 0.823-1.325 0.733-2.11l-0.373-3.242c-0.154-1.299-1.248-2.277-2.56-2.277h-2.226c-1.454 0-2.663 1.209-2.573 2.663 0.682 10.987 9.469 19.761 20.443 20.443 1.454 0.090 2.663-1.119 2.663-2.573v-2.226c0.013-1.3-0.965-2.393-2.264-2.547z"></path>
</symbol>
<symbol id="icon-email-black" viewBox="0 0 32 32">
<path d="M26.667 5.333h-21.333c-1.467 0-2.653 1.2-2.653 2.667l-0.013 16c0 1.467 1.2 2.667 2.667 2.667h21.333c1.467 0 2.667-1.2 2.667-2.667v-16c0-1.467-1.2-2.667-2.667-2.667zM26.133 11l-9.427 5.893c-0.427 0.267-0.987 0.267-1.413 0l-9.427-5.893c-0.333-0.213-0.533-0.573-0.533-0.96 0-0.893 0.973-1.427 1.733-0.96l8.933 5.587 8.933-5.587c0.76-0.467 1.733 0.067 1.733 0.96 0 0.387-0.2 0.747-0.533 0.96z"></path>
</symbol>
<symbol id="icon-envelope" viewBox="0 0 43 32">
<path d="M38.667 0h-34.667c-2.206 0-4 1.794-4 4v24c0 2.206 1.794 4 4 4h34.667c2.206 0 4-1.794 4-4v-24c0-2.206-1.794-4-4-4zM38.667 2.667c0.181 0 0.353 0.038 0.511 0.103l-17.844 15.466-17.844-15.466c0.158-0.066 0.33-0.103 0.511-0.103h34.667zM38.667 29.333h-34.667c-0.736 0-1.333-0.598-1.333-1.333v-22.413l17.793 15.421c0.251 0.217 0.563 0.326 0.874 0.326s0.622-0.108 0.874-0.326l17.793-15.421v22.413c0 0.736-0.598 1.333-1.333 1.333z"></path>
</symbol>
<symbol id="icon-smartphone" viewBox="0 0 20 32">
<path d="M17 0h-14c-1.654 0-3 1.346-3 3v26c0 1.654 1.346 3 3 3h14c1.654 0 3-1.346 3-3v-26c0-1.654-1.346-3-3-3zM3 2h14c0.552 0 1 0.448 1 1v21h-16v-21c0-0.552 0.448-1 1-1zM17 30h-14c-0.552 0-1-0.448-1-1v-3h16v3c0 0.552-0.448 1-1 1z"></path>
<path d="M4.707 27.478c0.391 0.365 0.391 0.956 0 1.321s-1.024 0.365-1.414 0c-0.391-0.365-0.391-0.956 0-1.321s1.024-0.365 1.414 0z"></path>
</symbol>
<symbol id="icon-calendar-lines" viewBox="0 0 32 32">
<path d="M25.333 2.667h-1.333v-1.333c0-0.736-0.596-1.333-1.333-1.333s-1.333 0.597-1.333 1.333v1.333h-10.667v-1.333c0-0.736-0.596-1.333-1.333-1.333s-1.333 0.597-1.333 1.333v1.333h-1.333c-3.676 0-6.667 2.991-6.667 6.667v16c0 3.676 2.991 6.667 6.667 6.667h18.667c3.676 0 6.667-2.991 6.667-6.667v-16c0-3.676-2.991-6.667-6.667-6.667zM6.667 5.333h18.667c2.205 0 4 1.795 4 4v1.333h-26.667v-1.333c0-2.205 1.795-4 4-4zM25.333 29.333h-18.667c-2.205 0-4-1.795-4-4v-12h26.667v12c0 2.205-1.795 4-4 4zM25.333 18.667c0 0.736-0.596 1.333-1.333 1.333h-16c-0.737 0-1.333-0.597-1.333-1.333s0.596-1.333 1.333-1.333h16c0.737 0 1.333 0.597 1.333 1.333zM16 24c0 0.736-0.596 1.333-1.333 1.333h-6.667c-0.737 0-1.333-0.597-1.333-1.333s0.596-1.333 1.333-1.333h6.667c0.737 0 1.333 0.597 1.333 1.333z"></path>
</symbol>
<symbol id="icon-map-marker" viewBox="0 0 32 32">
<path d="M16 16c2.946 0 5.333-2.388 5.333-5.333s-2.388-5.333-5.333-5.333c-2.946 0-5.333 2.388-5.333 5.333v0c0 2.946 2.388 5.333 5.333 5.333v0zM16 8c1.473 0 2.667 1.194 2.667 2.667s-1.194 2.667-2.667 2.667c-1.473 0-2.667-1.194-2.667-2.667v0c0-1.473 1.194-2.667 2.667-2.667v0zM27.547 12.209l-0.959-0.319c0.045-0.367 0.070-0.793 0.070-1.224 0-5.888-4.771-10.662-10.658-10.667h-0c-5.884 0.002-10.653 4.773-10.653 10.657 0 0.517 0.037 1.025 0.108 1.522l-0.007-0.057c-1.33 0.254-2.487 0.868-3.4 1.736l0.003-0.003c-1.264 1.204-2.051 2.9-2.051 4.779 0 0.011 0 0.022 0 0.033v-0.002 5.433c0.006 3.015 2.007 5.56 4.753 6.388l0.047 0.012 3.827 1.2c0.59 0.19 1.269 0.3 1.974 0.3 0.004 0 0.008 0 0.012 0h-0.001c0.643-0.001 1.265-0.091 1.854-0.26l-0.048 0.012 7.707-2.28c0.314-0.089 0.676-0.141 1.049-0.141s0.734 0.051 1.077 0.147l-0.028-0.007 3.183 1.067c0.379 0.096 0.814 0.151 1.261 0.151 2.944 0 5.331-2.385 5.333-5.328v-6.866c-0.007-2.886-1.841-5.343-4.407-6.273l-0.047-0.015zM10.344 5.016c1.446-1.451 3.446-2.349 5.656-2.349s4.21 0.898 5.656 2.349l0 0c1.446 1.455 2.34 3.46 2.34 5.674 0 2.207-0.888 4.206-2.326 5.66l0.001-0.001-4.737 4.607c-0.238 0.234-0.565 0.378-0.926 0.378s-0.688-0.144-0.926-0.378l0 0-4.737-4.587c-1.447-1.456-2.341-3.462-2.341-5.677s0.894-4.221 2.341-5.677l-0 0zM29.333 25.361c0 0.002 0 0.003 0 0.005 0 0.846-0.396 1.6-1.013 2.086l-0.006 0.004c-0.446 0.361-1.020 0.579-1.645 0.579-0.185 0-0.366-0.019-0.54-0.056l0.017 0.003-3.127-1.051c-0.554-0.165-1.191-0.26-1.849-0.26-0.631 0-1.242 0.087-1.821 0.25l0.047-0.011-7.712 2.277c-0.319 0.091-0.685 0.144-1.064 0.144-0.427 0-0.838-0.067-1.223-0.191l0.028 0.008-3.859-1.2c-1.687-0.499-2.897-2.033-2.901-3.85v-5.434c-0-0.007-0-0.014-0-0.022 0-1.125 0.47-2.141 1.225-2.861l0.002-0.002c0.591-0.564 1.354-0.95 2.204-1.072l0.022-0.003c0.568 1.386 1.364 2.569 2.353 3.559l-0-0 4.756 4.604c0.717 0.702 1.699 1.136 2.783 1.136s2.066-0.433 2.783-1.136l-0.001 0.001 4.751-4.617c1.036-1.040 1.857-2.293 2.393-3.689l0.025-0.073 0.716 0.237c1.56 0.571 2.653 2.041 2.656 3.766v0z"></path>
</symbol>
<symbol id="icon-envelope" viewBox="0 0 32 32">
<path d="M24.667 1.333h-17.333c-4.048 0.005-7.329 3.285-7.333 7.333v14.667c0.005 4.048 3.285 7.329 7.333 7.333h17.334c4.048-0.005 7.329-3.285 7.333-7.333v-14.667c-0.005-4.048-3.285-7.329-7.333-7.333h-0zM24.667 5.333c0.843 0.003 1.612 0.322 2.194 0.844l-0.003-0.003-8.667 8.667c-0.567 0.542-1.337 0.876-2.185 0.876s-1.618-0.334-2.187-0.877l0.001 0.001-8.667-8.667c0.576-0.517 1.34-0.836 2.179-0.841h0.001zM24.667 26.667h-17.333c-1.841 0-3.333-1.492-3.333-3.333v0-12.644l6.985 6.985c1.283 1.284 3.056 2.078 5.014 2.078s3.731-0.794 5.014-2.077l6.987-6.985v12.644c0 1.841-1.492 3.333-3.333 3.333v0z"></path>
</symbol>
<symbol id="icon-phone-call" viewBox="0 0 32 32">
<path d="M23.333 32c-10.865 0.305-30.1-18.951-20.851-29.416 0.033-0.032 1.456-1.272 1.456-1.272 0.849-0.787 1.99-1.269 3.243-1.269 1.281 0 2.445 0.504 3.303 1.326l-0.002-0.002 2.869 3.091c0.807 0.842 1.303 1.986 1.303 3.247 0 1.287-0.517 2.452-1.356 3.301l0-0-0.517 0.525c1.573 3.426 4.254 6.118 7.577 7.664l0.095 0.040 0.548-0.533c0.856-0.816 2.018-1.319 3.297-1.319s2.441 0.502 3.299 1.321l-0.002-0.002 2.983 2.767c0.871 0.852 1.412 2.039 1.412 3.353 0 1.259-0.496 2.402-1.304 3.244l0.002-0.002s-1.24 1.421-1.272 1.455c-1.541 1.535-3.666 2.484-6.013 2.484-0.024 0-0.049-0-0.073-0l0.004 0zM5.267 5.467c-6.479 8.024 14.259 27.564 21.273 21.267 0 0 1.232-1.412 1.265-1.444 0.121-0.121 0.195-0.287 0.195-0.471s-0.075-0.351-0.195-0.471v0l-2.984-2.765c-0.4-0.333-0.625-0.337-0.996-0.053l-1.515 1.491c-0.361 0.355-0.856 0.574-1.403 0.574-0.256 0-0.502-0.048-0.727-0.136l0.014 0.005c-5.399-2.048-9.587-6.231-11.597-11.49l-0.046-0.136c-0.091-0.22-0.144-0.476-0.144-0.744 0-0.547 0.219-1.042 0.575-1.403l-0 0 1.477-1.501c0.134-0.119 0.217-0.291 0.217-0.483 0-0.186-0.079-0.354-0.205-0.472l-0-0-2.872-3.091c-0.112-0.094-0.257-0.151-0.416-0.151-0.186 0-0.354 0.078-0.473 0.204l-0 0c-0.032 0.033-1.444 1.272-1.444 1.272zM22.411 20.115v0zM32 12.667c-0.008-6.992-5.674-12.658-12.666-12.667h-0.001c-1.105 0-2 0.895-2 2s0.895 2 2 2v0c4.784 0.006 8.661 3.883 8.667 8.666v0.001c0 1.105 0.895 2 2 2s2-0.895 2-2v0zM25.333 12.667c-0.004-3.312-2.688-5.996-6-6h-0c-1.105 0-2 0.895-2 2s0.895 2 2 2v0c1.105 0 2 0.895 2 2v0c0 1.105 0.895 2 2 2s2-0.895 2-2v0z"></path>
</symbol>
</defs>
</svg>
